<svg width="15" height="14" viewBox="0 0 15 14" fill="none" xmlns="http://www.w3.org/2000/svg">
<path fill-rule="evenodd" clip-rule="evenodd" d="M10.8369 0.5C9.35458 0.5 8.0761 1.38493 7.49971 2.65363C6.92388 1.38493 5.64511 0.5 4.16351 0.5C2.14304 0.5 0.5 2.1437 0.5 4.16375C0.5 4.58987 0.573157 4.99853 0.707805 5.37944C0.861001 5.81301 1.09322 6.20904 1.38762 6.5506C1.51315 6.69672 1.64951 6.83245 1.79672 6.95711L7.38431 12.5074C7.4187 12.5418 7.46348 12.559 7.50871 12.559C7.55434 12.559 7.59942 12.5418 7.63407 12.5074L13.4292 6.74977C13.8043 6.37258 14.0989 5.9157 14.2833 5.40577C14.4234 5.01785 14.5 4.59951 14.5 4.16375C14.5 2.1437 12.8565 0.5 10.8369 0.5Z" stroke="#979797"/>
</svg>
